<svg xmlns="http://www.w3.org/2000/svg" viewBox="0 0 512 512"><path fill="#8b5cf6" d="M144 144v48H368V144c0-44.2-35.8-80-80-80H224c-44.2 0-80 35.8-80 80zM80 192V144C80 64.5 144.5 0 224 0h64c79.5 0 144 64.5 144 144v48h16c35.3 0 64 28.7 64 64V416c0 35.3-28.7 64-64 64H64c-35.3 0-64-28.7-64-64V256c0-35.3 28.7-64 64-64H80zM272 272a32 32 0 1 0 -64 0 32 32 0 1 0 64 0zm96-32a32 32 0 1 0 0 64 32 32 0 1 0 0-64zM112 272a32 32 0 1 0 -64 0 32 32 0 1 0 64 0zm112 128h64c8.8 0 16-7.2 16-16s-7.2-16-16-16H224c-8.8 0-16 7.2-16 16s7.2 16 16 16z"/></svg>
